<mxfile host="app.diagrams.net" modified="2021-07-13T14:38:46.963Z" agent="5.0 (Macintosh; Intel Mac OS X 10_15_7) AppleWebKit/537.36 (KHTML, like Gecko) Chrome/91.0.4472.114 Safari/537.36" etag="FKD2k2I_pPa8peBkmKhS" version="14.8.6" type="github">
  <diagram id="OHio_l4A3hphXdwyJgQA" name="Page-1">
    <mxGraphModel dx="4730" dy="4014" grid="1" gridSize="10" guides="1" tooltips="1" connect="1" arrows="1" fold="1" page="1" pageScale="1" pageWidth="827" pageHeight="1169" math="0" shadow="0">
      <root>
        <mxCell id="0" />
        <mxCell id="1" parent="0" />
        <mxCell id="7kvAbgqLVaGYdPQzEYKD-1" value="&lt;span style=&quot;font-family: &amp;#34;helvetica neue&amp;#34; , &amp;#34;helvetica&amp;#34; , &amp;#34;arial&amp;#34; , sans-serif ; text-align: justify ; background-color: rgb(255 , 255 , 255)&quot;&gt;&lt;font style=&quot;font-size: 30px&quot;&gt;As with Figure 2 from Zhang et al. 2019, we&#39;ll be highlighting output files of each step in red.&lt;/font&gt;&lt;/span&gt;" style="text;html=1;strokeColor=none;fillColor=none;align=center;verticalAlign=middle;whiteSpace=wrap;rounded=0;" parent="1" vertex="1">
          <mxGeometry x="157" y="-100" width="670" height="140" as="geometry" />
        </mxCell>
        <mxCell id="7kvAbgqLVaGYdPQzEYKD-2" value="&lt;font style=&quot;font-size: 14px&quot;&gt;&lt;b&gt;Input files of rac-2d&lt;/b&gt;&amp;nbsp;&lt;br&gt;&lt;br&gt;For example, addGrain.py, dust_params.dat, glassy_pyroxene_300k.opti, etc.&lt;/font&gt;" style="rounded=1;whiteSpace=wrap;html=1;" parent="1" vertex="1">
          <mxGeometry x="60" y="100" width="180" height="110" as="geometry" />
        </mxCell>
        <mxCell id="7kvAbgqLVaGYdPQzEYKD-8" value="&lt;font style=&quot;font-size: 14px&quot;&gt;&lt;b&gt;rac-2d software&lt;br&gt;&lt;br&gt;&lt;/b&gt;&amp;nbsp;&lt;font color=&quot;#ff3333&quot;&gt;&lt;b&gt;iter_0001.dat &lt;/b&gt;&lt;br&gt;(results of rac-2d chemical model)&lt;/font&gt;&lt;/font&gt;" style="rounded=1;whiteSpace=wrap;html=1;" parent="1" vertex="1">
          <mxGeometry x="60" y="270" width="180" height="100" as="geometry" />
        </mxCell>
        <mxCell id="7kvAbgqLVaGYdPQzEYKD-9" value="" style="endArrow=classic;html=1;exitX=0.5;exitY=1;exitDx=0;exitDy=0;" parent="1" source="7kvAbgqLVaGYdPQzEYKD-2" target="7kvAbgqLVaGYdPQzEYKD-8" edge="1">
          <mxGeometry width="50" height="50" relative="1" as="geometry">
            <mxPoint x="150" y="250" as="sourcePoint" />
            <mxPoint x="200" y="200" as="targetPoint" />
          </mxGeometry>
        </mxCell>
        <mxCell id="7kvAbgqLVaGYdPQzEYKD-11" value="&lt;font style=&quot;font-size: 14px&quot;&gt;&lt;font color=&quot;#ff3333&quot;&gt;&lt;b&gt;HD163296structure.txt&lt;/b&gt; (some useful information of rac-2d disk model of HD 163296)&lt;/font&gt;&lt;/font&gt;" style="rounded=1;whiteSpace=wrap;html=1;" parent="1" vertex="1">
          <mxGeometry x="324" y="270" width="180" height="100" as="geometry" />
        </mxCell>
        <mxCell id="7kvAbgqLVaGYdPQzEYKD-12" value="" style="endArrow=classic;html=1;exitX=1;exitY=0.5;exitDx=0;exitDy=0;" parent="1" source="7kvAbgqLVaGYdPQzEYKD-8" target="7kvAbgqLVaGYdPQzEYKD-11" edge="1">
          <mxGeometry width="50" height="50" relative="1" as="geometry">
            <mxPoint x="290" y="320" as="sourcePoint" />
            <mxPoint x="340" y="270" as="targetPoint" />
          </mxGeometry>
        </mxCell>
        <mxCell id="7kvAbgqLVaGYdPQzEYKD-13" value="&lt;font style=&quot;font-size: 14px&quot;&gt;&lt;b&gt;&amp;nbsp;radmc3dPy &lt;br&gt;(&lt;/b&gt;&lt;b&gt;A Python package of RADMC3D software&lt;/b&gt;&lt;b&gt;)&lt;/b&gt;&lt;br&gt;&lt;br&gt;&lt;span style=&quot;color: rgb(255 , 51 , 51)&quot;&gt;&lt;b&gt;input files of RADMC3D&lt;/b&gt;&lt;br&gt;&lt;/span&gt;&lt;font color=&quot;#ff3333&quot;&gt;(amr_grid.inp, gas_tempearture.inp, gas_velocity.inp, lines.inp, microturbulence.inp, molecule_xxx.inp, numberdens_xxx.inp, radmc3d.inp, stars.inp, wavelength_micron.inp)&lt;/font&gt;&lt;br&gt;&lt;/font&gt;" style="rounded=1;whiteSpace=wrap;html=1;" parent="1" vertex="1">
          <mxGeometry x="590" y="245" width="180" height="225" as="geometry" />
        </mxCell>
        <mxCell id="7kvAbgqLVaGYdPQzEYKD-14" value="" style="endArrow=classic;html=1;exitX=1;exitY=0.5;exitDx=0;exitDy=0;" parent="1" edge="1">
          <mxGeometry width="50" height="50" relative="1" as="geometry">
            <mxPoint x="503.9999999999999" y="319.66" as="sourcePoint" />
            <mxPoint x="588.0000000000001" y="319.66" as="targetPoint" />
          </mxGeometry>
        </mxCell>
        <mxCell id="7kvAbgqLVaGYdPQzEYKD-18" value="" style="endArrow=classic;html=1;" parent="1" edge="1">
          <mxGeometry width="50" height="50" relative="1" as="geometry">
            <mxPoint x="679.29" y="470" as="sourcePoint" />
            <mxPoint x="679.29" y="550" as="targetPoint" />
          </mxGeometry>
        </mxCell>
        <mxCell id="7kvAbgqLVaGYdPQzEYKD-19" value="&lt;font style=&quot;font-size: 14px&quot;&gt;&lt;font color=&quot;#ff3333&quot;&gt;&lt;b&gt;image.out&lt;/b&gt;&amp;nbsp;&lt;br&gt;(output images of RADMC3D simulation)&lt;br&gt;&lt;br&gt;&lt;/font&gt;&lt;b style=&quot;color: rgb(255 , 51 , 51)&quot;&gt;radmc3d.out&lt;/b&gt;&lt;font color=&quot;#ff3333&quot;&gt;&lt;br&gt;&lt;/font&gt;&lt;/font&gt;" style="rounded=1;whiteSpace=wrap;html=1;" parent="1" vertex="1">
          <mxGeometry x="590" y="550" width="180" height="100" as="geometry" />
        </mxCell>
        <mxCell id="7kvAbgqLVaGYdPQzEYKD-24" value="&lt;font style=&quot;font-size: 14px&quot;&gt;&lt;b&gt;real ALMA image cubes&lt;/b&gt;&lt;br&gt;&lt;br&gt;&lt;span style=&quot;font-family: &amp;#34;helvetica neue&amp;#34; , &amp;#34;helvetica&amp;#34; , &amp;#34;arial&amp;#34; , sans-serif ; text-align: left ; background-color: rgb(255 , 255 , 255)&quot;&gt;CO: HD_163296_CO_220GHz.robust_0.5.clean.JvMcorr.image.pbcor.fits&lt;br&gt;&lt;/span&gt;&lt;span style=&quot;font-family: &amp;#34;helvetica neue&amp;#34; , &amp;#34;helvetica&amp;#34; , &amp;#34;arial&amp;#34; , sans-serif ; text-align: left ; background-color: rgb(255 , 255 , 255)&quot;&gt;13CO: HD_163296_13CO_220GHz.robust_0.5.clean.JvMcorr.image.pbcor.fits&lt;br&gt;&lt;/span&gt;&lt;span style=&quot;font-family: &amp;#34;helvetica neue&amp;#34; , &amp;#34;helvetica&amp;#34; , &amp;#34;arial&amp;#34; , sans-serif ; text-align: left ; background-color: rgb(255 , 255 , 255)&quot;&gt;C18O: HD_163296_C18O_220GHz.robust_0.5.clean.JvMcorr.image.pbcor.fits&lt;br&gt;&lt;/span&gt;&lt;span style=&quot;font-family: &amp;#34;helvetica neue&amp;#34; , &amp;#34;helvetica&amp;#34; , &amp;#34;arial&amp;#34; , sans-serif ; text-align: left ; background-color: rgb(255 , 255 , 255)&quot;&gt;HCN: HD_163296_HCN_260GHz_hf1.robust_0.5.clean.JvMcorr.image.pbcor.fits&lt;br&gt;&lt;/span&gt;&lt;span style=&quot;font-family: &amp;#34;helvetica neue&amp;#34; , &amp;#34;helvetica&amp;#34; , &amp;#34;arial&amp;#34; , sans-serif ; text-align: left ; background-color: rgb(255 , 255 , 255)&quot;&gt;C2H: HD_163296_C2H_260GHz_hf4.robust_0.5.clean.JvMcorr.image.pbcor.fits&lt;/span&gt;&lt;br&gt;&lt;/font&gt;" style="rounded=1;whiteSpace=wrap;html=1;" parent="1" vertex="1">
          <mxGeometry x="1180" y="680" width="520" height="180" as="geometry" />
        </mxCell>
        <mxCell id="7kvAbgqLVaGYdPQzEYKD-25" value="" style="endArrow=classic;html=1;exitX=0.5;exitY=1;exitDx=0;exitDy=0;" parent="1" edge="1">
          <mxGeometry width="50" height="50" relative="1" as="geometry">
            <mxPoint x="1439.5" y="860" as="sourcePoint" />
            <mxPoint x="1439.5" y="920" as="targetPoint" />
          </mxGeometry>
        </mxCell>
        <mxCell id="7kvAbgqLVaGYdPQzEYKD-26" value="&lt;font style=&quot;font-size: 14px&quot;&gt;&lt;b&gt;get_emission_surface function in diskprojection software (&lt;/b&gt;&lt;b&gt;one dimensionally smoothing,&amp;nbsp;&lt;/b&gt;&lt;b&gt;&lt;br&gt;smooth = 0.5)&lt;br&gt;&lt;/b&gt;&lt;span style=&quot;font-family: &amp;#34;helvetica neue&amp;#34; , &amp;#34;helvetica&amp;#34; , &amp;#34;arial&amp;#34; , sans-serif ; text-align: justify ; background-color: rgb(255 , 255 , 255)&quot;&gt;a technique described in Pinte et al. 2018&amp;nbsp;&lt;/span&gt;&lt;span style=&quot;font-family: &amp;#34;helvetica neue&amp;#34; , &amp;#34;helvetica&amp;#34; , &amp;#34;arial&amp;#34; , sans-serif ; text-align: justify ; background-color: rgb(255 , 255 , 255)&quot;&gt;for&amp;nbsp;&lt;/span&gt;&lt;span style=&quot;font-family: &amp;#34;helvetica neue&amp;#34; , &amp;#34;helvetica&amp;#34; , &amp;#34;arial&amp;#34; , sans-serif ; text-align: justify ; background-color: rgb(255 , 255 , 255)&quot;&gt;&lt;br&gt;mapping the vertical distribution of CO in ALMA observations of disks&lt;/span&gt;&lt;b&gt;&lt;br&gt;&lt;br&gt;&lt;/b&gt;&amp;nbsp;&lt;font color=&quot;#ff3333&quot;&gt;&lt;b&gt;HD163296_CO&lt;br&gt;&lt;/b&gt;&lt;/font&gt;&lt;b style=&quot;color: rgb(255 , 51 , 51)&quot;&gt;HD163296_13CO&lt;br&gt;&lt;/b&gt;&lt;b style=&quot;color: rgb(255 , 51 , 51)&quot;&gt;HD163296_C18O&lt;br&gt;&lt;/b&gt;&lt;b style=&quot;color: rgb(255 , 51 , 51)&quot;&gt;HD163296_HCN&lt;br&gt;&lt;/b&gt;&lt;b style=&quot;color: rgb(255 , 51 , 51)&quot;&gt;HD163296_C2H&lt;/b&gt;&lt;font color=&quot;#ff3333&quot;&gt;&lt;br&gt;(diagnostic plots)&lt;/font&gt;&lt;/font&gt;" style="rounded=1;whiteSpace=wrap;html=1;" parent="1" vertex="1">
          <mxGeometry x="1295" y="920" width="290" height="230" as="geometry" />
        </mxCell>
        <mxCell id="7kvAbgqLVaGYdPQzEYKD-28" value="&lt;font style=&quot;font-size: 14px&quot;&gt;&lt;b&gt;get_emission_surface function in diskprojection software (one dimensionally smoothing, smooth = 2)&lt;/b&gt;&lt;b&gt;&lt;br&gt;&lt;/b&gt;&lt;font color=&quot;#ff3333&quot;&gt;&lt;b&gt;&lt;br&gt;&lt;/b&gt;&lt;/font&gt;&lt;b style=&quot;color: rgb(255 , 51 , 51)&quot;&gt;HD163296_CO_smooth2&lt;/b&gt;&lt;b style=&quot;color: rgb(255 , 51 , 51)&quot;&gt;&lt;br&gt;&lt;/b&gt;&lt;b style=&quot;color: rgb(255 , 51 , 51)&quot;&gt;HD163296_13CO_smooth2&lt;/b&gt;&lt;b style=&quot;color: rgb(255 , 51 , 51)&quot;&gt;&lt;br&gt;&lt;/b&gt;&lt;b style=&quot;color: rgb(255 , 51 , 51)&quot;&gt;HD163296_C18O_smooth2&lt;/b&gt;&lt;b style=&quot;color: rgb(255 , 51 , 51)&quot;&gt;&lt;br&gt;&lt;/b&gt;&lt;b style=&quot;color: rgb(255 , 51 , 51)&quot;&gt;HD163296_HCN_smooth2&lt;/b&gt;&lt;b style=&quot;color: rgb(255 , 51 , 51)&quot;&gt;&lt;br&gt;&lt;/b&gt;&lt;b style=&quot;color: rgb(255 , 51 , 51)&quot;&gt;HD163296_C2H_smooth2&lt;/b&gt;&lt;font color=&quot;#ff3333&quot;&gt;&lt;br&gt;(diagnostic plots)&lt;/font&gt;&lt;/font&gt;" style="rounded=1;whiteSpace=wrap;html=1;" parent="1" vertex="1">
          <mxGeometry x="1790" y="682.5" width="290" height="175" as="geometry" />
        </mxCell>
        <mxCell id="7kvAbgqLVaGYdPQzEYKD-29" value="" style="endArrow=classic;html=1;exitX=1;exitY=0.5;exitDx=0;exitDy=0;entryX=0;entryY=0.5;entryDx=0;entryDy=0;" parent="1" target="7kvAbgqLVaGYdPQzEYKD-28" edge="1">
          <mxGeometry width="50" height="50" relative="1" as="geometry">
            <mxPoint x="1700" y="769.5" as="sourcePoint" />
            <mxPoint x="1784" y="769.5" as="targetPoint" />
          </mxGeometry>
        </mxCell>
        <mxCell id="7kvAbgqLVaGYdPQzEYKD-30" value="&lt;font style=&quot;font-size: 14px&quot;&gt;&lt;b&gt;pre-smoothed real ALMA image cubes&lt;/b&gt;&lt;br&gt;&lt;br&gt;&lt;span style=&quot;font-family: &amp;#34;helvetica neue&amp;#34; , &amp;#34;helvetica&amp;#34; , &amp;#34;arial&amp;#34; , sans-serif ; text-align: left ; background-color: rgb(255 , 255 , 255)&quot;&gt;CO: H&lt;/span&gt;&lt;span style=&quot;font-family: &amp;#34;helvetica neue&amp;#34; , &amp;#34;helvetica&amp;#34; , &amp;#34;arial&amp;#34; , sans-serif ; text-align: left ; background-color: rgb(255 , 255 , 255)&quot;&gt;D_163296_CO_220GHz.0.2arcsec.clean.JvMcorr.image.pbcor.fits&lt;/span&gt;&lt;span style=&quot;font-family: &amp;#34;helvetica neue&amp;#34; , &amp;#34;helvetica&amp;#34; , &amp;#34;arial&amp;#34; , sans-serif ; text-align: left ; background-color: rgb(255 , 255 , 255)&quot;&gt;&lt;br&gt;&lt;/span&gt;&lt;span style=&quot;font-family: &amp;#34;helvetica neue&amp;#34; , &amp;#34;helvetica&amp;#34; , &amp;#34;arial&amp;#34; , sans-serif ; text-align: left ; background-color: rgb(255 , 255 , 255)&quot;&gt;13CO: HD_163296_13CO_220GHz.robust_0.5.clean.JvMcorr.image.pbcor.fits&lt;br&gt;&lt;/span&gt;&lt;span style=&quot;font-family: &amp;#34;helvetica neue&amp;#34; , &amp;#34;helvetica&amp;#34; , &amp;#34;arial&amp;#34; , sans-serif ; text-align: left ; background-color: rgb(255 , 255 , 255)&quot;&gt;C18O: H&lt;/span&gt;&lt;span style=&quot;font-family: &amp;#34;helvetica neue&amp;#34; , &amp;#34;helvetica&amp;#34; , &amp;#34;arial&amp;#34; , sans-serif ; text-align: left ; background-color: rgb(255 , 255 , 255)&quot;&gt;D_163296_C18O_220GHz.0.2arcsec.clean.JvMcorr.image.pbcor.fits&lt;/span&gt;&lt;span style=&quot;font-family: &amp;#34;helvetica neue&amp;#34; , &amp;#34;helvetica&amp;#34; , &amp;#34;arial&amp;#34; , sans-serif ; text-align: left ; background-color: rgb(255 , 255 , 255)&quot;&gt;&lt;br&gt;&lt;/span&gt;&lt;span style=&quot;font-family: &amp;#34;helvetica neue&amp;#34; , &amp;#34;helvetica&amp;#34; , &amp;#34;arial&amp;#34; , sans-serif ; text-align: left ; background-color: rgb(255 , 255 , 255)&quot;&gt;HCN: H&lt;/span&gt;&lt;span style=&quot;font-family: &amp;#34;helvetica neue&amp;#34; , &amp;#34;helvetica&amp;#34; , &amp;#34;arial&amp;#34; , sans-serif ; text-align: left ; background-color: rgb(255 , 255 , 255)&quot;&gt;D_163296_HCN_260GHz_hf1.0.2arcsec.clean.JvMcorr.image.pbcor.fits&lt;/span&gt;&lt;span style=&quot;font-family: &amp;#34;helvetica neue&amp;#34; , &amp;#34;helvetica&amp;#34; , &amp;#34;arial&amp;#34; , sans-serif ; text-align: left ; background-color: rgb(255 , 255 , 255)&quot;&gt;&lt;br&gt;&lt;/span&gt;&lt;span style=&quot;font-family: &amp;#34;helvetica neue&amp;#34; , &amp;#34;helvetica&amp;#34; , &amp;#34;arial&amp;#34; , sans-serif ; text-align: left ; background-color: rgb(255 , 255 , 255)&quot;&gt;C2H: H&lt;/span&gt;&lt;span style=&quot;font-family: &amp;#34;helvetica neue&amp;#34; , &amp;#34;helvetica&amp;#34; , &amp;#34;arial&amp;#34; , sans-serif ; text-align: left ; background-color: rgb(255 , 255 , 255)&quot;&gt;D_163296_C2H_260GHz_hf4.0.2arcsec.clean.JvMcorr.image.pbcor.fits&lt;/span&gt;&lt;br&gt;&lt;/font&gt;" style="rounded=1;whiteSpace=wrap;html=1;" parent="1" vertex="1">
          <mxGeometry x="1240" y="80" width="520" height="180" as="geometry" />
        </mxCell>
        <mxCell id="7kvAbgqLVaGYdPQzEYKD-31" value="&lt;font style=&quot;font-size: 14px&quot;&gt;&lt;b&gt;get_emission_surface function in diskprojection software (two dimensionally smoothing, smooth = 0)&lt;/b&gt;&lt;b&gt;&lt;br&gt;&lt;/b&gt;&lt;font color=&quot;#ff3333&quot;&gt;&lt;b&gt;&lt;br&gt;&lt;/b&gt;&lt;/font&gt;&lt;b style=&quot;color: rgb(255 , 51 , 51)&quot;&gt;HD163296_CO_imsmooth&lt;/b&gt;&lt;b style=&quot;color: rgb(255 , 51 , 51)&quot;&gt;&lt;br&gt;&lt;/b&gt;&lt;b style=&quot;color: rgb(255 , 51 , 51)&quot;&gt;HD163296_13CO_imsmooth&lt;/b&gt;&lt;b style=&quot;color: rgb(255 , 51 , 51)&quot;&gt;&lt;br&gt;&lt;/b&gt;&lt;b style=&quot;color: rgb(255 , 51 , 51)&quot;&gt;HD163296_C18O_imsmooth&lt;/b&gt;&lt;b style=&quot;color: rgb(255 , 51 , 51)&quot;&gt;&lt;br&gt;&lt;/b&gt;&lt;b style=&quot;color: rgb(255 , 51 , 51)&quot;&gt;HD163296_HCN_imsmooth&lt;/b&gt;&lt;b style=&quot;color: rgb(255 , 51 , 51)&quot;&gt;&lt;br&gt;&lt;/b&gt;&lt;b style=&quot;color: rgb(255 , 51 , 51)&quot;&gt;HD163296_C2H_imsmooth&lt;/b&gt;&lt;font color=&quot;#ff3333&quot;&gt;&lt;br&gt;(diagnostic plots)&lt;/font&gt;&lt;/font&gt;" style="rounded=1;whiteSpace=wrap;html=1;" parent="1" vertex="1">
          <mxGeometry x="1850" y="82.5" width="290" height="175" as="geometry" />
        </mxCell>
        <mxCell id="7kvAbgqLVaGYdPQzEYKD-32" value="" style="endArrow=classic;html=1;exitX=1;exitY=0.5;exitDx=0;exitDy=0;entryX=0;entryY=0.5;entryDx=0;entryDy=0;" parent="1" edge="1">
          <mxGeometry width="50" height="50" relative="1" as="geometry">
            <mxPoint x="1760" y="169.5" as="sourcePoint" />
            <mxPoint x="1850" y="170" as="targetPoint" />
          </mxGeometry>
        </mxCell>
        <mxCell id="7kvAbgqLVaGYdPQzEYKD-33" value="&lt;font style=&quot;font-size: 14px&quot;&gt;&lt;b&gt;rest frequencies of molecules&lt;/b&gt;&amp;nbsp;&lt;br&gt;&lt;/font&gt;" style="rounded=1;whiteSpace=wrap;html=1;" parent="1" vertex="1">
          <mxGeometry x="310" y="520" width="180" height="110" as="geometry" />
        </mxCell>
        <mxCell id="7kvAbgqLVaGYdPQzEYKD-35" value="" style="endArrow=none;html=1;" parent="1" edge="1">
          <mxGeometry width="50" height="50" relative="1" as="geometry">
            <mxPoint x="400.5" y="720" as="sourcePoint" />
            <mxPoint x="400" y="630" as="targetPoint" />
          </mxGeometry>
        </mxCell>
        <mxCell id="7kvAbgqLVaGYdPQzEYKD-36" value="" style="endArrow=none;html=1;" parent="1" edge="1">
          <mxGeometry width="50" height="50" relative="1" as="geometry">
            <mxPoint x="679.79" y="720" as="sourcePoint" />
            <mxPoint x="679.29" y="650" as="targetPoint" />
          </mxGeometry>
        </mxCell>
        <mxCell id="7kvAbgqLVaGYdPQzEYKD-37" value="" style="endArrow=none;html=1;" parent="1" edge="1">
          <mxGeometry width="50" height="50" relative="1" as="geometry">
            <mxPoint x="400" y="719.29" as="sourcePoint" />
            <mxPoint x="680" y="719" as="targetPoint" />
          </mxGeometry>
        </mxCell>
        <mxCell id="7kvAbgqLVaGYdPQzEYKD-38" value="" style="endArrow=classic;html=1;" parent="1" edge="1">
          <mxGeometry width="50" height="50" relative="1" as="geometry">
            <mxPoint x="539.9999999999999" y="720" as="sourcePoint" />
            <mxPoint x="539.9999999999999" y="800" as="targetPoint" />
          </mxGeometry>
        </mxCell>
        <mxCell id="7kvAbgqLVaGYdPQzEYKD-39" value="&lt;font style=&quot;font-size: 14px&quot;&gt;&lt;font color=&quot;#ff3333&quot;&gt;&lt;b&gt;FITS files&lt;br&gt;&lt;/b&gt;&lt;/font&gt;&lt;span style=&quot;color: rgb(255 , 51 , 51)&quot;&gt;(FITS files used in testing diskprojection on RADMC3D models. S&lt;/span&gt;&lt;span style=&quot;color: rgb(255 , 51 , 51)&quot;&gt;aving image.out files as FITS files so that it will be easier for us to examine RADMC3D results.&lt;/span&gt;&lt;span style=&quot;color: rgb(255 , 51 , 51)&quot;&gt;)&lt;/span&gt;&lt;font color=&quot;#ff3333&quot;&gt;&lt;br&gt;&lt;/font&gt;&lt;/font&gt;" style="rounded=1;whiteSpace=wrap;html=1;" parent="1" vertex="1">
          <mxGeometry x="450" y="800" width="180" height="150" as="geometry" />
        </mxCell>
        <mxCell id="7kvAbgqLVaGYdPQzEYKD-40" value="&lt;font style=&quot;font-size: 14px&quot;&gt;&lt;b&gt;get_emission_surface function in diskprojection software(&lt;/b&gt;&lt;b&gt;one dimensionally smoothing,&amp;nbsp;&lt;/b&gt;&lt;b&gt;&lt;br&gt;smooth = 0 and 3)&lt;/b&gt;&lt;b&gt;&lt;br&gt;&lt;br&gt;&lt;/b&gt;&amp;nbsp;&lt;b style=&quot;color: rgb(255 , 51 , 51)&quot;&gt;model_CO&lt;br&gt;&lt;/b&gt;&lt;b style=&quot;color: rgb(255 , 51 , 51)&quot;&gt;model_CO_smoothed&lt;/b&gt;&lt;font color=&quot;#ff3333&quot;&gt;&lt;b&gt;&lt;br&gt;&lt;/b&gt;&lt;/font&gt;&lt;b style=&quot;color: rgb(255 , 51 , 51)&quot;&gt;model_13CO&lt;br&gt;&lt;/b&gt;&lt;b style=&quot;color: rgb(255 , 51 , 51)&quot;&gt;model_13CO_smoothed&lt;/b&gt;&lt;b style=&quot;color: rgb(255 , 51 , 51)&quot;&gt;&lt;br&gt;&lt;/b&gt;&lt;b style=&quot;color: rgb(255 , 51 , 51)&quot;&gt;model_C18O&lt;br&gt;&lt;/b&gt;&lt;b style=&quot;color: rgb(255 , 51 , 51)&quot;&gt;model_C18O_smoothed&lt;/b&gt;&lt;b style=&quot;color: rgb(255 , 51 , 51)&quot;&gt;&lt;br&gt;&lt;/b&gt;&lt;b style=&quot;color: rgb(255 , 51 , 51)&quot;&gt;model_HCN&lt;br&gt;&lt;/b&gt;&lt;b style=&quot;color: rgb(255 , 51 , 51)&quot;&gt;model_HCN_smoothed&lt;/b&gt;&lt;b style=&quot;color: rgb(255 , 51 , 51)&quot;&gt;&lt;br&gt;&lt;/b&gt;&lt;b style=&quot;color: rgb(255 , 51 , 51)&quot;&gt;model_C2H&lt;br&gt;&lt;/b&gt;&lt;b style=&quot;color: rgb(255 , 51 , 51)&quot;&gt;model_C2H_smoothed&lt;/b&gt;&lt;font color=&quot;#ff3333&quot;&gt;&lt;br&gt;(diagnostic plots)&lt;/font&gt;&lt;/font&gt;" style="rounded=1;whiteSpace=wrap;html=1;" parent="1" vertex="1">
          <mxGeometry x="395" y="1030" width="290" height="265" as="geometry" />
        </mxCell>
        <mxCell id="7kvAbgqLVaGYdPQzEYKD-42" value="&lt;font style=&quot;font-size: 14px&quot;&gt;&lt;b&gt;get_emission_surface_v2 function (one dimensionally smoothing, smooth = 0.5)&lt;/b&gt;&lt;b&gt;&lt;br&gt;&lt;/b&gt;&lt;font color=&quot;#ff3333&quot;&gt;&lt;b&gt;&lt;br&gt;&lt;/b&gt;&lt;/font&gt;&lt;b style=&quot;color: rgb(255 , 51 , 51)&quot;&gt;HD163296_CO_v2&lt;/b&gt;&lt;b style=&quot;color: rgb(255 , 51 , 51)&quot;&gt;&lt;br&gt;&lt;/b&gt;&lt;b style=&quot;color: rgb(255 , 51 , 51)&quot;&gt;HD163296_13CO_v2&lt;/b&gt;&lt;b style=&quot;color: rgb(255 , 51 , 51)&quot;&gt;&lt;br&gt;&lt;/b&gt;&lt;b style=&quot;color: rgb(255 , 51 , 51)&quot;&gt;HD163296_C18O_v2&lt;/b&gt;&lt;b style=&quot;color: rgb(255 , 51 , 51)&quot;&gt;&lt;br&gt;&lt;/b&gt;&lt;b style=&quot;color: rgb(255 , 51 , 51)&quot;&gt;HD163296_HCN_v2&lt;/b&gt;&lt;b style=&quot;color: rgb(255 , 51 , 51)&quot;&gt;&lt;br&gt;&lt;/b&gt;&lt;b style=&quot;color: rgb(255 , 51 , 51)&quot;&gt;HD163296_C2H_v2&lt;/b&gt;&lt;font color=&quot;#ff3333&quot;&gt;&lt;br&gt;(diagnostic plots)&lt;/font&gt;&lt;/font&gt;" style="rounded=1;whiteSpace=wrap;html=1;" parent="1" vertex="1">
          <mxGeometry x="1295" y="405" width="290" height="175" as="geometry" />
        </mxCell>
        <mxCell id="7kvAbgqLVaGYdPQzEYKD-43" value="" style="endArrow=classic;html=1;exitX=1;exitY=0.5;exitDx=0;exitDy=0;" parent="1" edge="1">
          <mxGeometry width="50" height="50" relative="1" as="geometry">
            <mxPoint x="1439.58" y="680" as="sourcePoint" />
            <mxPoint x="1439" y="580" as="targetPoint" />
          </mxGeometry>
        </mxCell>
        <mxCell id="7kvAbgqLVaGYdPQzEYKD-44" value="" style="endArrow=classic;html=1;exitX=1;exitY=0.5;exitDx=0;exitDy=0;entryX=0;entryY=0.5;entryDx=0;entryDy=0;" parent="1" target="7kvAbgqLVaGYdPQzEYKD-45" edge="1">
          <mxGeometry width="50" height="50" relative="1" as="geometry">
            <mxPoint x="1585" y="1029.58" as="sourcePoint" />
            <mxPoint x="1675" y="1030.08" as="targetPoint" />
            <Array as="points">
              <mxPoint x="1630" y="1030" />
            </Array>
          </mxGeometry>
        </mxCell>
        <mxCell id="7kvAbgqLVaGYdPQzEYKD-45" value="&lt;font style=&quot;font-size: 14px&quot;&gt;&lt;b&gt;make_emissionsurface_gif function&lt;/b&gt;&lt;br&gt;making gifs to quickly scan over emission diagnostic plots&amp;nbsp;&lt;br&gt;&lt;b&gt;&lt;br&gt;&lt;/b&gt;&amp;nbsp;&lt;font color=&quot;#ff3333&quot;&gt;&lt;b&gt;HD163296_CO.gif&lt;br&gt;&lt;/b&gt;&lt;/font&gt;&lt;b style=&quot;color: rgb(255 , 51 , 51)&quot;&gt;HD163296_13CO.gif&lt;br&gt;&lt;/b&gt;&lt;b style=&quot;color: rgb(255 , 51 , 51)&quot;&gt;HD163296_C18O.gif&lt;br&gt;&lt;/b&gt;&lt;b style=&quot;color: rgb(255 , 51 , 51)&quot;&gt;HD163296_HCN.gif&lt;br&gt;&lt;/b&gt;&lt;b style=&quot;color: rgb(255 , 51 , 51)&quot;&gt;HD163296_C2H.gif&lt;/b&gt;&lt;font color=&quot;#ff3333&quot;&gt;&lt;br&gt;(gifs)&lt;/font&gt;&lt;/font&gt;" style="rounded=1;whiteSpace=wrap;html=1;" parent="1" vertex="1">
          <mxGeometry x="1680" y="920" width="290" height="220" as="geometry" />
        </mxCell>
        <mxCell id="tNqf5QW-nkxqxk9ZFxXp-1" value="" style="endArrow=classic;html=1;" parent="1" edge="1">
          <mxGeometry width="50" height="50" relative="1" as="geometry">
            <mxPoint x="539.2899999999997" y="950" as="sourcePoint" />
            <mxPoint x="539.2899999999997" y="1030" as="targetPoint" />
          </mxGeometry>
        </mxCell>
        <mxCell id="AEIV_mk72NJeF8CW5xAD-5" value="&lt;font style=&quot;font-size: 14px&quot;&gt;&lt;b&gt;27 files stored in &lt;i&gt;diskprojectiontest&lt;br&gt;&lt;/i&gt;&lt;/b&gt;(it&#39;s more than 27 up until now)&lt;br&gt;&lt;br&gt;&lt;span style=&quot;text-align: left ; background-color: rgb(255 , 255 , 255)&quot;&gt;HD163296_13CO_smooth0.5&lt;br&gt;&lt;/span&gt;&lt;pre style=&quot;box-sizing: border-box ; overflow: auto ; padding: 1px 0px ; margin-top: 0px ; margin-bottom: 0px ; line-height: inherit ; word-break: break-all ; overflow-wrap: break-word ; background-color: rgb(255 , 255 , 255) ; border: 0px ; border-radius: 0px ; vertical-align: baseline&quot;&gt;&lt;font face=&quot;Helvetica&quot;&gt;HD163296_C2H_smooth2&lt;/font&gt;&lt;/pre&gt;&lt;pre style=&quot;box-sizing: border-box ; overflow: auto ; padding: 1px 0px ; margin-top: 0px ; margin-bottom: 0px ; line-height: inherit ; word-break: break-all ; overflow-wrap: break-word ; background-color: rgb(255 , 255 , 255) ; border: 0px ; border-radius: 0px ; vertical-align: baseline&quot;&gt;&lt;pre style=&quot;box-sizing: border-box ; overflow: auto ; padding: 1px 0px ; margin-top: 0px ; margin-bottom: 0px ; line-height: inherit ; word-break: break-all ; overflow-wrap: break-word ; border: 0px ; border-radius: 0px ; vertical-align: baseline&quot;&gt;&lt;font face=&quot;Helvetica&quot;&gt;HD163296_C2H_imsmooth&lt;/font&gt;&lt;/pre&gt;&lt;pre style=&quot;box-sizing: border-box ; overflow: auto ; padding: 1px 0px ; margin-top: 0px ; margin-bottom: 0px ; line-height: inherit ; word-break: break-all ; overflow-wrap: break-word ; border: 0px ; border-radius: 0px ; vertical-align: baseline&quot;&gt;&lt;pre style=&quot;box-sizing: border-box ; overflow: auto ; padding: 1px 0px ; margin-top: 0px ; margin-bottom: 0px ; line-height: inherit ; word-break: break-all ; overflow-wrap: break-word ; border: 0px ; border-radius: 0px ; vertical-align: baseline&quot;&gt;&lt;font face=&quot;Helvetica&quot;&gt;HD163296_HCN_v2&lt;/font&gt;&lt;/pre&gt;&lt;pre style=&quot;box-sizing: border-box ; overflow: auto ; padding: 1px 0px ; margin-top: 0px ; margin-bottom: 0px ; line-height: inherit ; word-break: break-all ; overflow-wrap: break-word ; border: 0px ; border-radius: 0px ; vertical-align: baseline&quot;&gt;&lt;pre style=&quot;box-sizing: border-box ; overflow: auto ; padding: 1px 0px ; margin-top: 0px ; margin-bottom: 0px ; line-height: inherit ; word-break: break-all ; overflow-wrap: break-word ; border: 0px ; border-radius: 0px ; vertical-align: baseline&quot;&gt;&lt;font face=&quot;Helvetica&quot;&gt;HD163296_CO_imsmooth&lt;/font&gt;&lt;/pre&gt;&lt;pre style=&quot;box-sizing: border-box ; overflow: auto ; padding: 1px 0px ; margin-top: 0px ; margin-bottom: 0px ; line-height: inherit ; word-break: break-all ; overflow-wrap: break-word ; border: 0px ; border-radius: 0px ; vertical-align: baseline&quot;&gt;&lt;font face=&quot;Helvetica&quot;&gt;HD163296_C18O_smooth2&lt;/font&gt;&lt;/pre&gt;&lt;pre style=&quot;box-sizing: border-box ; overflow: auto ; padding: 1px 0px ; margin-top: 0px ; margin-bottom: 0px ; line-height: inherit ; word-break: break-all ; overflow-wrap: break-word ; border: 0px ; border-radius: 0px ; vertical-align: baseline&quot;&gt;&lt;font face=&quot;Helvetica&quot;&gt;HD163296_13CO_imsmooth&lt;/font&gt;&lt;/pre&gt;&lt;pre style=&quot;box-sizing: border-box ; overflow: auto ; padding: 1px 0px ; margin-top: 0px ; margin-bottom: 0px ; line-height: inherit ; word-break: break-all ; overflow-wrap: break-word ; border: 0px ; border-radius: 0px ; vertical-align: baseline&quot;&gt;&lt;font face=&quot;Helvetica&quot;&gt;model_CO&lt;/font&gt;&lt;/pre&gt;&lt;pre style=&quot;box-sizing: border-box ; overflow: auto ; padding: 1px 0px ; margin-top: 0px ; margin-bottom: 0px ; line-height: inherit ; word-break: break-all ; overflow-wrap: break-word ; border: 0px ; border-radius: 0px ; vertical-align: baseline&quot;&gt;&lt;pre style=&quot;box-sizing: border-box ; overflow: auto ; padding: 1px 0px ; margin-top: 0px ; margin-bottom: 0px ; line-height: inherit ; word-break: break-all ; overflow-wrap: break-word ; border: 0px ; border-radius: 0px ; vertical-align: baseline&quot;&gt;&lt;font face=&quot;Helvetica&quot;&gt;HD163296_C18O_imsmooth&lt;/font&gt;&lt;/pre&gt;&lt;pre style=&quot;box-sizing: border-box ; overflow: auto ; padding: 1px 0px ; margin-top: 0px ; margin-bottom: 0px ; line-height: inherit ; word-break: break-all ; overflow-wrap: break-word ; border: 0px ; border-radius: 0px ; vertical-align: baseline&quot;&gt;&lt;font face=&quot;Helvetica&quot;&gt;HD163296_CO_v2&lt;/font&gt;&lt;/pre&gt;&lt;pre style=&quot;box-sizing: border-box ; overflow: auto ; padding: 1px 0px ; margin-top: 0px ; margin-bottom: 0px ; line-height: inherit ; word-break: break-all ; overflow-wrap: break-word ; border: 0px ; border-radius: 0px ; vertical-align: baseline&quot;&gt;&lt;pre style=&quot;box-sizing: border-box ; overflow: auto ; padding: 1px 0px ; margin-top: 0px ; margin-bottom: 0px ; line-height: inherit ; word-break: break-all ; overflow-wrap: break-word ; border: 0px ; border-radius: 0px ; vertical-align: baseline&quot;&gt;&lt;font face=&quot;Helvetica&quot;&gt;HD163296_C18O_v2&lt;/font&gt;&lt;/pre&gt;&lt;pre style=&quot;box-sizing: border-box ; overflow: auto ; padding: 1px 0px ; margin-top: 0px ; margin-bottom: 0px ; line-height: inherit ; word-break: break-all ; overflow-wrap: break-word ; border: 0px ; border-radius: 0px ; vertical-align: baseline&quot;&gt;&lt;font face=&quot;Helvetica&quot;&gt;HD163296_HCN&lt;/font&gt;&lt;/pre&gt;&lt;pre style=&quot;box-sizing: border-box ; overflow: auto ; padding: 1px 0px ; margin-top: 0px ; margin-bottom: 0px ; line-height: inherit ; word-break: break-all ; overflow-wrap: break-word ; border: 0px ; border-radius: 0px ; vertical-align: baseline&quot;&gt;&lt;font face=&quot;Helvetica&quot;&gt;model_HCN_smoothed&lt;/font&gt;&lt;/pre&gt;&lt;pre style=&quot;box-sizing: border-box ; overflow: auto ; padding: 1px 0px ; margin-top: 0px ; margin-bottom: 0px ; line-height: inherit ; word-break: break-all ; overflow-wrap: break-word ; border: 0px ; border-radius: 0px ; vertical-align: baseline&quot;&gt;&lt;pre style=&quot;box-sizing: border-box ; overflow: auto ; padding: 1px 0px ; margin-top: 0px ; margin-bottom: 0px ; line-height: inherit ; word-break: break-all ; overflow-wrap: break-word ; border: 0px ; border-radius: 0px ; vertical-align: baseline&quot;&gt;&lt;font face=&quot;Helvetica&quot;&gt;model_CO_smoothed&lt;/font&gt;&lt;/pre&gt;&lt;pre style=&quot;box-sizing: border-box ; overflow: auto ; padding: 1px 0px ; margin-top: 0px ; margin-bottom: 0px ; line-height: inherit ; word-break: break-all ; overflow-wrap: break-word ; border: 0px ; border-radius: 0px ; vertical-align: baseline&quot;&gt;&lt;font face=&quot;Helvetica&quot;&gt;HD163296_13CO_v2&lt;/font&gt;&lt;/pre&gt;&lt;pre style=&quot;box-sizing: border-box ; overflow: auto ; padding: 1px 0px ; margin-top: 0px ; margin-bottom: 0px ; line-height: inherit ; word-break: break-all ; overflow-wrap: break-word ; border: 0px ; border-radius: 0px ; vertical-align: baseline&quot;&gt;&lt;font face=&quot;Helvetica&quot;&gt;HD163296_13CO&lt;/font&gt;&lt;/pre&gt;&lt;pre style=&quot;box-sizing: border-box ; overflow: auto ; padding: 1px 0px ; margin-top: 0px ; margin-bottom: 0px ; line-height: inherit ; word-break: break-all ; overflow-wrap: break-word ; border: 0px ; border-radius: 0px ; vertical-align: baseline&quot;&gt;&lt;font face=&quot;Helvetica&quot;&gt;HD163296_C2H&lt;/font&gt;&lt;/pre&gt;&lt;pre style=&quot;box-sizing: border-box ; overflow: auto ; padding: 1px 0px ; margin-top: 0px ; margin-bottom: 0px ; line-height: inherit ; word-break: break-all ; overflow-wrap: break-word ; border: 0px ; border-radius: 0px ; vertical-align: baseline&quot;&gt;&lt;font face=&quot;Helvetica&quot;&gt;HD163296_C2H_v2&lt;/font&gt;&lt;/pre&gt;&lt;pre style=&quot;box-sizing: border-box ; overflow: auto ; padding: 1px 0px ; margin-top: 0px ; margin-bottom: 0px ; line-height: inherit ; word-break: break-all ; overflow-wrap: break-word ; border: 0px ; border-radius: 0px ; vertical-align: baseline&quot;&gt;&lt;font face=&quot;Helvetica&quot;&gt;HD163296_CO&lt;/font&gt;&lt;/pre&gt;&lt;pre style=&quot;box-sizing: border-box ; overflow: auto ; padding: 1px 0px ; margin-top: 0px ; margin-bottom: 0px ; line-height: inherit ; word-break: break-all ; overflow-wrap: break-word ; border: 0px ; border-radius: 0px ; vertical-align: baseline&quot;&gt;&lt;font face=&quot;Helvetica&quot;&gt;HD163296_13CO_smooth2&lt;/font&gt;&lt;/pre&gt;&lt;pre style=&quot;box-sizing: border-box ; overflow: auto ; padding: 1px 0px ; margin-top: 0px ; margin-bottom: 0px ; line-height: inherit ; word-break: break-all ; overflow-wrap: break-word ; border: 0px ; border-radius: 0px ; vertical-align: baseline&quot;&gt;&lt;font face=&quot;Helvetica&quot;&gt;model_C2H&lt;/font&gt;&lt;/pre&gt;&lt;pre style=&quot;box-sizing: border-box ; overflow: auto ; padding: 1px 0px ; margin-top: 0px ; margin-bottom: 0px ; line-height: inherit ; word-break: break-all ; overflow-wrap: break-word ; border: 0px ; border-radius: 0px ; vertical-align: baseline&quot;&gt;&lt;font face=&quot;Helvetica&quot;&gt;model_HCN&lt;/font&gt;&lt;/pre&gt;&lt;pre style=&quot;box-sizing: border-box ; overflow: auto ; padding: 1px 0px ; margin-top: 0px ; margin-bottom: 0px ; line-height: inherit ; word-break: break-all ; overflow-wrap: break-word ; border: 0px ; border-radius: 0px ; vertical-align: baseline&quot;&gt;&lt;font face=&quot;Helvetica&quot;&gt;HD163296_CO_smooth2&lt;/font&gt;&lt;/pre&gt;&lt;pre style=&quot;box-sizing: border-box ; overflow: auto ; padding: 1px 0px ; margin-top: 0px ; margin-bottom: 0px ; line-height: inherit ; word-break: break-all ; overflow-wrap: break-word ; border: 0px ; border-radius: 0px ; vertical-align: baseline&quot;&gt;&lt;font face=&quot;Helvetica&quot;&gt; model_C2H_smoothed&lt;/font&gt;&lt;/pre&gt;&lt;pre style=&quot;box-sizing: border-box ; overflow: auto ; padding: 1px 0px ; margin-top: 0px ; margin-bottom: 0px ; line-height: inherit ; word-break: break-all ; overflow-wrap: break-word ; border: 0px ; border-radius: 0px ; vertical-align: baseline&quot;&gt;&lt;font face=&quot;Helvetica&quot;&gt; HD163296_HCN_smooth2&lt;/font&gt;&lt;/pre&gt;&lt;pre style=&quot;box-sizing: border-box ; overflow: auto ; padding: 1px 0px ; margin-top: 0px ; margin-bottom: 0px ; line-height: inherit ; word-break: break-all ; overflow-wrap: break-word ; border: 0px ; border-radius: 0px ; vertical-align: baseline&quot;&gt;&lt;font face=&quot;Helvetica&quot;&gt; HD163296_HCN_imsmooth&lt;/font&gt;&lt;/pre&gt;&lt;pre style=&quot;box-sizing: border-box ; overflow: auto ; padding: 1px 0px ; margin-top: 0px ; margin-bottom: 0px ; line-height: inherit ; word-break: break-all ; overflow-wrap: break-word ; border: 0px ; border-radius: 0px ; vertical-align: baseline&quot;&gt;&lt;font face=&quot;Helvetica&quot;&gt; HD163296_C18O&lt;/font&gt;&lt;/pre&gt;&lt;/pre&gt;&lt;/pre&gt;&lt;/pre&gt;&lt;/pre&gt;&lt;/pre&gt;&lt;/pre&gt;&lt;/font&gt;" style="rounded=1;whiteSpace=wrap;html=1;" vertex="1" parent="1">
          <mxGeometry x="2490" y="80" width="520" height="550" as="geometry" />
        </mxCell>
        <mxCell id="AEIV_mk72NJeF8CW5xAD-6" value="&lt;font style=&quot;font-size: 14px&quot;&gt;&lt;b&gt;edited make_emissionsurface_gif function&lt;/b&gt;&lt;br&gt;new function that makes compressed gifs&amp;nbsp;&lt;br&gt;&lt;b&gt;&lt;br&gt;&lt;/b&gt;&amp;nbsp;&lt;b&gt;&lt;font color=&quot;#ff3333&quot;&gt;&lt;span style=&quot;text-align: left ; background-color: rgb(255 , 255 , 255)&quot;&gt;HD163296_13CO_smooth0.5&lt;/span&gt;&lt;span style=&quot;background-color: rgb(255 , 255 , 255)&quot;&gt;_compressed.gif&lt;/span&gt;&lt;/font&gt;&lt;/b&gt;&lt;pre style=&quot;box-sizing: border-box ; overflow: auto ; padding: 1px 0px ; margin-top: 0px ; margin-bottom: 0px ; line-height: inherit ; word-break: break-all ; overflow-wrap: break-word ; background-color: rgb(255 , 255 , 255) ; border: 0px ; border-radius: 0px ; vertical-align: baseline&quot;&gt;&lt;font face=&quot;Helvetica&quot; color=&quot;#ff3333&quot;&gt;&lt;b&gt;HD163296_C2H_smooth2_compressed.gif&lt;/b&gt;&lt;/font&gt;&lt;/pre&gt;&lt;pre style=&quot;box-sizing: border-box ; overflow: auto ; padding: 1px 0px ; margin-top: 0px ; margin-bottom: 0px ; line-height: inherit ; word-break: break-all ; overflow-wrap: break-word ; background-color: rgb(255 , 255 , 255) ; border: 0px ; border-radius: 0px ; vertical-align: baseline&quot;&gt;&lt;pre style=&quot;box-sizing: border-box ; overflow: auto ; padding: 1px 0px ; margin-top: 0px ; margin-bottom: 0px ; line-height: inherit ; word-break: break-all ; overflow-wrap: break-word ; border: 0px ; border-radius: 0px ; vertical-align: baseline&quot;&gt;&lt;font face=&quot;Helvetica&quot; color=&quot;#ff3333&quot;&gt;&lt;b&gt;HD163296_C2H_imsmooth_compressed.gif&lt;/b&gt;&lt;/font&gt;&lt;/pre&gt;&lt;pre style=&quot;box-sizing: border-box ; overflow: auto ; padding: 1px 0px ; margin-top: 0px ; margin-bottom: 0px ; line-height: inherit ; word-break: break-all ; overflow-wrap: break-word ; border: 0px ; border-radius: 0px ; vertical-align: baseline&quot;&gt;&lt;pre style=&quot;box-sizing: border-box ; overflow: auto ; padding: 1px 0px ; margin-top: 0px ; margin-bottom: 0px ; line-height: inherit ; word-break: break-all ; overflow-wrap: break-word ; border: 0px ; border-radius: 0px ; vertical-align: baseline&quot;&gt;&lt;font face=&quot;Helvetica&quot; color=&quot;#ff3333&quot;&gt;&lt;b&gt;HD163296_HCN_v2_compressed.gif&lt;/b&gt;&lt;/font&gt;&lt;/pre&gt;&lt;pre style=&quot;box-sizing: border-box ; overflow: auto ; padding: 1px 0px ; margin-top: 0px ; margin-bottom: 0px ; line-height: inherit ; word-break: break-all ; overflow-wrap: break-word ; border: 0px ; border-radius: 0px ; vertical-align: baseline&quot;&gt;&lt;pre style=&quot;box-sizing: border-box ; overflow: auto ; padding: 1px 0px ; margin-top: 0px ; margin-bottom: 0px ; line-height: inherit ; word-break: break-all ; overflow-wrap: break-word ; border: 0px ; border-radius: 0px ; vertical-align: baseline&quot;&gt;&lt;font face=&quot;Helvetica&quot; color=&quot;#ff3333&quot;&gt;&lt;b&gt;HD163296_CO_imsmooth_compressed.gif&lt;/b&gt;&lt;/font&gt;&lt;/pre&gt;&lt;pre style=&quot;box-sizing: border-box ; overflow: auto ; padding: 1px 0px ; margin-top: 0px ; margin-bottom: 0px ; line-height: inherit ; word-break: break-all ; overflow-wrap: break-word ; border: 0px ; border-radius: 0px ; vertical-align: baseline&quot;&gt;&lt;font face=&quot;Helvetica&quot; color=&quot;#ff3333&quot;&gt;&lt;b&gt;HD163296_C18O_smooth2_compressed.gif&lt;/b&gt;&lt;/font&gt;&lt;/pre&gt;&lt;pre style=&quot;box-sizing: border-box ; overflow: auto ; padding: 1px 0px ; margin-top: 0px ; margin-bottom: 0px ; line-height: inherit ; word-break: break-all ; overflow-wrap: break-word ; border: 0px ; border-radius: 0px ; vertical-align: baseline&quot;&gt;&lt;font face=&quot;Helvetica&quot; color=&quot;#ff3333&quot;&gt;&lt;b&gt;HD163296_13CO_imsmooth_compressed.gif&lt;/b&gt;&lt;/font&gt;&lt;/pre&gt;&lt;pre style=&quot;box-sizing: border-box ; overflow: auto ; padding: 1px 0px ; margin-top: 0px ; margin-bottom: 0px ; line-height: inherit ; word-break: break-all ; overflow-wrap: break-word ; border: 0px ; border-radius: 0px ; vertical-align: baseline&quot;&gt;&lt;font face=&quot;Helvetica&quot; color=&quot;#ff3333&quot;&gt;&lt;b&gt;model_CO_compressed.gif&lt;/b&gt;&lt;/font&gt;&lt;/pre&gt;&lt;pre style=&quot;box-sizing: border-box ; overflow: auto ; padding: 1px 0px ; margin-top: 0px ; margin-bottom: 0px ; line-height: inherit ; word-break: break-all ; overflow-wrap: break-word ; border: 0px ; border-radius: 0px ; vertical-align: baseline&quot;&gt;&lt;pre style=&quot;box-sizing: border-box ; overflow: auto ; padding: 1px 0px ; margin-top: 0px ; margin-bottom: 0px ; line-height: inherit ; word-break: break-all ; overflow-wrap: break-word ; border: 0px ; border-radius: 0px ; vertical-align: baseline&quot;&gt;&lt;font face=&quot;Helvetica&quot; color=&quot;#ff3333&quot;&gt;&lt;b&gt;HD163296_C18O_imsmooth_compressed.gif&lt;/b&gt;&lt;/font&gt;&lt;/pre&gt;&lt;pre style=&quot;box-sizing: border-box ; overflow: auto ; padding: 1px 0px ; margin-top: 0px ; margin-bottom: 0px ; line-height: inherit ; word-break: break-all ; overflow-wrap: break-word ; border: 0px ; border-radius: 0px ; vertical-align: baseline&quot;&gt;&lt;font face=&quot;Helvetica&quot; color=&quot;#ff3333&quot;&gt;&lt;b&gt;HD163296_CO_v2_compressed.gif&lt;/b&gt;&lt;/font&gt;&lt;/pre&gt;&lt;pre style=&quot;box-sizing: border-box ; overflow: auto ; padding: 1px 0px ; margin-top: 0px ; margin-bottom: 0px ; line-height: inherit ; word-break: break-all ; overflow-wrap: break-word ; border: 0px ; border-radius: 0px ; vertical-align: baseline&quot;&gt;&lt;pre style=&quot;box-sizing: border-box ; overflow: auto ; padding: 1px 0px ; margin-top: 0px ; margin-bottom: 0px ; line-height: inherit ; word-break: break-all ; overflow-wrap: break-word ; border: 0px ; border-radius: 0px ; vertical-align: baseline&quot;&gt;&lt;font face=&quot;Helvetica&quot; color=&quot;#ff3333&quot;&gt;&lt;b&gt;HD163296_C18O_v2_compressed.gif&lt;/b&gt;&lt;/font&gt;&lt;/pre&gt;&lt;pre style=&quot;box-sizing: border-box ; overflow: auto ; padding: 1px 0px ; margin-top: 0px ; margin-bottom: 0px ; line-height: inherit ; word-break: break-all ; overflow-wrap: break-word ; border: 0px ; border-radius: 0px ; vertical-align: baseline&quot;&gt;&lt;font face=&quot;Helvetica&quot; color=&quot;#ff3333&quot;&gt;&lt;b&gt;HD163296_HCN_compressed.gif&lt;/b&gt;&lt;/font&gt;&lt;/pre&gt;&lt;pre style=&quot;box-sizing: border-box ; overflow: auto ; padding: 1px 0px ; margin-top: 0px ; margin-bottom: 0px ; line-height: inherit ; word-break: break-all ; overflow-wrap: break-word ; border: 0px ; border-radius: 0px ; vertical-align: baseline&quot;&gt;&lt;font face=&quot;Helvetica&quot; color=&quot;#ff3333&quot;&gt;&lt;b&gt;model_HCN_smoothed_compressed.gif&lt;/b&gt;&lt;/font&gt;&lt;/pre&gt;&lt;pre style=&quot;box-sizing: border-box ; overflow: auto ; padding: 1px 0px ; margin-top: 0px ; margin-bottom: 0px ; line-height: inherit ; word-break: break-all ; overflow-wrap: break-word ; border: 0px ; border-radius: 0px ; vertical-align: baseline&quot;&gt;&lt;pre style=&quot;box-sizing: border-box ; overflow: auto ; padding: 1px 0px ; margin-top: 0px ; margin-bottom: 0px ; line-height: inherit ; word-break: break-all ; overflow-wrap: break-word ; border: 0px ; border-radius: 0px ; vertical-align: baseline&quot;&gt;&lt;font face=&quot;Helvetica&quot; color=&quot;#ff3333&quot;&gt;&lt;b&gt;model_CO_smoothed_compressed.gif&lt;/b&gt;&lt;/font&gt;&lt;/pre&gt;&lt;pre style=&quot;box-sizing: border-box ; overflow: auto ; padding: 1px 0px ; margin-top: 0px ; margin-bottom: 0px ; line-height: inherit ; word-break: break-all ; overflow-wrap: break-word ; border: 0px ; border-radius: 0px ; vertical-align: baseline&quot;&gt;&lt;font face=&quot;Helvetica&quot; color=&quot;#ff3333&quot;&gt;&lt;b&gt;HD163296_13CO_v2_compressed.gif&lt;/b&gt;&lt;/font&gt;&lt;/pre&gt;&lt;pre style=&quot;box-sizing: border-box ; overflow: auto ; padding: 1px 0px ; margin-top: 0px ; margin-bottom: 0px ; line-height: inherit ; word-break: break-all ; overflow-wrap: break-word ; border: 0px ; border-radius: 0px ; vertical-align: baseline&quot;&gt;&lt;font face=&quot;Helvetica&quot; color=&quot;#ff3333&quot;&gt;&lt;b&gt;HD163296_13CO_compressed.gif&lt;/b&gt;&lt;/font&gt;&lt;/pre&gt;&lt;pre style=&quot;box-sizing: border-box ; overflow: auto ; padding: 1px 0px ; margin-top: 0px ; margin-bottom: 0px ; line-height: inherit ; word-break: break-all ; overflow-wrap: break-word ; border: 0px ; border-radius: 0px ; vertical-align: baseline&quot;&gt;&lt;font face=&quot;Helvetica&quot; color=&quot;#ff3333&quot;&gt;&lt;b&gt;HD163296_C2H_compressed.gif&lt;/b&gt;&lt;/font&gt;&lt;/pre&gt;&lt;pre style=&quot;box-sizing: border-box ; overflow: auto ; padding: 1px 0px ; margin-top: 0px ; margin-bottom: 0px ; line-height: inherit ; word-break: break-all ; overflow-wrap: break-word ; border: 0px ; border-radius: 0px ; vertical-align: baseline&quot;&gt;&lt;font face=&quot;Helvetica&quot; color=&quot;#ff3333&quot;&gt;&lt;b&gt;HD163296_C2H_v2_compressed.gif&lt;/b&gt;&lt;/font&gt;&lt;/pre&gt;&lt;pre style=&quot;box-sizing: border-box ; overflow: auto ; padding: 1px 0px ; margin-top: 0px ; margin-bottom: 0px ; line-height: inherit ; word-break: break-all ; overflow-wrap: break-word ; border: 0px ; border-radius: 0px ; vertical-align: baseline&quot;&gt;&lt;font face=&quot;Helvetica&quot; color=&quot;#ff3333&quot;&gt;&lt;b&gt;HD163296_CO_compressed.gif&lt;/b&gt;&lt;/font&gt;&lt;/pre&gt;&lt;pre style=&quot;box-sizing: border-box ; overflow: auto ; padding: 1px 0px ; margin-top: 0px ; margin-bottom: 0px ; line-height: inherit ; word-break: break-all ; overflow-wrap: break-word ; border: 0px ; border-radius: 0px ; vertical-align: baseline&quot;&gt;&lt;font face=&quot;Helvetica&quot; color=&quot;#ff3333&quot;&gt;&lt;b&gt;HD163296_13CO_smooth2_compressed.gif&lt;/b&gt;&lt;/font&gt;&lt;/pre&gt;&lt;pre style=&quot;box-sizing: border-box ; overflow: auto ; padding: 1px 0px ; margin-top: 0px ; margin-bottom: 0px ; line-height: inherit ; word-break: break-all ; overflow-wrap: break-word ; border: 0px ; border-radius: 0px ; vertical-align: baseline&quot;&gt;&lt;font face=&quot;Helvetica&quot; color=&quot;#ff3333&quot;&gt;&lt;b&gt;model_C2H_compressed.gif&lt;/b&gt;&lt;/font&gt;&lt;/pre&gt;&lt;pre style=&quot;box-sizing: border-box ; overflow: auto ; padding: 1px 0px ; margin-top: 0px ; margin-bottom: 0px ; line-height: inherit ; word-break: break-all ; overflow-wrap: break-word ; border: 0px ; border-radius: 0px ; vertical-align: baseline&quot;&gt;&lt;font face=&quot;Helvetica&quot; color=&quot;#ff3333&quot;&gt;&lt;b&gt;model_HCN_compressed.gif&lt;/b&gt;&lt;/font&gt;&lt;/pre&gt;&lt;pre style=&quot;box-sizing: border-box ; overflow: auto ; padding: 1px 0px ; margin-top: 0px ; margin-bottom: 0px ; line-height: inherit ; word-break: break-all ; overflow-wrap: break-word ; border: 0px ; border-radius: 0px ; vertical-align: baseline&quot;&gt;&lt;font face=&quot;Helvetica&quot; color=&quot;#ff3333&quot;&gt;&lt;b&gt;HD163296_CO_smooth2_compressed.gif&lt;/b&gt;&lt;/font&gt;&lt;/pre&gt;&lt;pre style=&quot;box-sizing: border-box ; overflow: auto ; padding: 1px 0px ; margin-top: 0px ; margin-bottom: 0px ; line-height: inherit ; word-break: break-all ; overflow-wrap: break-word ; border: 0px ; border-radius: 0px ; vertical-align: baseline&quot;&gt;&lt;font face=&quot;Helvetica&quot; color=&quot;#ff3333&quot;&gt;&lt;b&gt; model_C2H_smoothed_compressed.gif&lt;/b&gt;&lt;/font&gt;&lt;/pre&gt;&lt;pre style=&quot;box-sizing: border-box ; overflow: auto ; padding: 1px 0px ; margin-top: 0px ; margin-bottom: 0px ; line-height: inherit ; word-break: break-all ; overflow-wrap: break-word ; border: 0px ; border-radius: 0px ; vertical-align: baseline&quot;&gt;&lt;font face=&quot;Helvetica&quot; color=&quot;#ff3333&quot;&gt;&lt;b&gt; HD163296_HCN_smooth2_compressed.gif&lt;/b&gt;&lt;/font&gt;&lt;/pre&gt;&lt;pre style=&quot;box-sizing: border-box ; overflow: auto ; padding: 1px 0px ; margin-top: 0px ; margin-bottom: 0px ; line-height: inherit ; word-break: break-all ; overflow-wrap: break-word ; border: 0px ; border-radius: 0px ; vertical-align: baseline&quot;&gt;&lt;font face=&quot;Helvetica&quot; color=&quot;#ff3333&quot;&gt;&lt;b&gt; HD163296_HCN_imsmooth_compressed.gif&lt;/b&gt;&lt;/font&gt;&lt;/pre&gt;&lt;pre style=&quot;box-sizing: border-box ; overflow: auto ; padding: 1px 0px ; margin-top: 0px ; margin-bottom: 0px ; line-height: inherit ; word-break: break-all ; overflow-wrap: break-word ; border: 0px ; border-radius: 0px ; vertical-align: baseline&quot;&gt;&lt;font face=&quot;Helvetica&quot; color=&quot;#ff3333&quot;&gt;&lt;b&gt; HD163296_C18O_compressed.gif&lt;/b&gt;&lt;/font&gt;&lt;/pre&gt;&lt;/pre&gt;&lt;/pre&gt;&lt;/pre&gt;&lt;/pre&gt;&lt;/pre&gt;&lt;/pre&gt;&lt;font color=&quot;#ff3333&quot;&gt;(gifs)&lt;/font&gt;&lt;/font&gt;" style="rounded=1;whiteSpace=wrap;html=1;" vertex="1" parent="1">
          <mxGeometry x="3100" y="70" width="390" height="570" as="geometry" />
        </mxCell>
        <mxCell id="AEIV_mk72NJeF8CW5xAD-8" value="" style="endArrow=classic;html=1;exitX=1;exitY=0.5;exitDx=0;exitDy=0;entryX=0;entryY=0.5;entryDx=0;entryDy=0;" edge="1" parent="1">
          <mxGeometry width="50" height="50" relative="1" as="geometry">
            <mxPoint x="3010" y="354.5" as="sourcePoint" />
            <mxPoint x="3100" y="355" as="targetPoint" />
          </mxGeometry>
        </mxCell>
        <mxCell id="AEIV_mk72NJeF8CW5xAD-9" value="&lt;font style=&quot;font-size: 14px&quot;&gt;&lt;b&gt;rac2d models fits image&lt;/b&gt;&lt;br&gt;&lt;br&gt;&lt;div&gt;&lt;font face=&quot;helvetica neue, helvetica, arial, sans-serif&quot;&gt;&lt;span style=&quot;background-color: rgb(255 , 255 , 255)&quot;&gt;COimage.fits&lt;/span&gt;&lt;/font&gt;&lt;/div&gt;&lt;div&gt;&lt;font face=&quot;helvetica neue, helvetica, arial, sans-serif&quot;&gt;&lt;span style=&quot;background-color: rgb(255 , 255 , 255)&quot;&gt;C2Himage.fits&lt;/span&gt;&lt;/font&gt;&lt;/div&gt;&lt;div&gt;&lt;font face=&quot;helvetica neue, helvetica, arial, sans-serif&quot;&gt;&lt;span style=&quot;background-color: rgb(255 , 255 , 255)&quot;&gt;HCNimage.fits&lt;/span&gt;&lt;/font&gt;&lt;/div&gt;&lt;/font&gt;" style="rounded=1;whiteSpace=wrap;html=1;align=center;" vertex="1" parent="1">
          <mxGeometry x="2480" y="850" width="220" height="180" as="geometry" />
        </mxCell>
        <mxCell id="AEIV_mk72NJeF8CW5xAD-10" value="" style="endArrow=classic;html=1;exitX=1;exitY=0.5;exitDx=0;exitDy=0;entryX=0;entryY=0.5;entryDx=0;entryDy=0;" edge="1" parent="1">
          <mxGeometry width="50" height="50" relative="1" as="geometry">
            <mxPoint x="2700" y="939.29" as="sourcePoint" />
            <mxPoint x="2790" y="939.79" as="targetPoint" />
          </mxGeometry>
        </mxCell>
        <mxCell id="AEIV_mk72NJeF8CW5xAD-13" value="&lt;font style=&quot;font-size: 14px&quot;&gt;&lt;b&gt;get_emission_surface_v2 function in diskprojection software (one dimensionally smoothing, smooth = 0.5 by default)&lt;br&gt;&lt;/b&gt;It won&#39;t look for emission surface outside the extent of the disk. Upper surface and lower surface are better distinguished. A new key word called min_Fnu is now ready to be used.&lt;b&gt;&lt;br&gt;&lt;/b&gt;&lt;font color=&quot;#ff3333&quot;&gt;&lt;b&gt;&lt;br&gt;&lt;/b&gt;&lt;/font&gt;&lt;b style=&quot;color: rgb(255 , 51 , 51)&quot;&gt;model_CO_v2&lt;/b&gt;&lt;b style=&quot;color: rgb(255 , 51 , 51)&quot;&gt;&lt;br&gt;&lt;/b&gt;&lt;font color=&quot;#ff3333&quot;&gt;&lt;b&gt;model_C2H_v2&lt;br&gt;model_HCN_v2&lt;/b&gt;&lt;br&gt;(diagnostic plots)&lt;/font&gt;&lt;/font&gt;" style="rounded=1;whiteSpace=wrap;html=1;" vertex="1" parent="1">
          <mxGeometry x="2791" y="837.5" width="290" height="205" as="geometry" />
        </mxCell>
        <mxCell id="AEIV_mk72NJeF8CW5xAD-15" value="" style="endArrow=none;html=1;" edge="1" parent="1">
          <mxGeometry width="50" height="50" relative="1" as="geometry">
            <mxPoint x="1040" y="770" as="sourcePoint" />
            <mxPoint x="1180" y="770" as="targetPoint" />
          </mxGeometry>
        </mxCell>
        <mxCell id="AEIV_mk72NJeF8CW5xAD-19" value="" style="endArrow=classic;html=1;exitX=1;exitY=0.5;exitDx=0;exitDy=0;entryX=0;entryY=0.5;entryDx=0;entryDy=0;" edge="1" parent="1">
          <mxGeometry width="50" height="50" relative="1" as="geometry">
            <mxPoint x="1040" y="1320" as="sourcePoint" />
            <mxPoint x="1130" y="1320.5" as="targetPoint" />
          </mxGeometry>
        </mxCell>
        <mxCell id="AEIV_mk72NJeF8CW5xAD-20" value="" style="endArrow=none;html=1;" edge="1" parent="1">
          <mxGeometry width="50" height="50" relative="1" as="geometry">
            <mxPoint x="1040" y="1320" as="sourcePoint" />
            <mxPoint x="1040" y="770" as="targetPoint" />
          </mxGeometry>
        </mxCell>
        <mxCell id="AEIV_mk72NJeF8CW5xAD-21" value="&lt;font style=&quot;font-size: 14px&quot;&gt;&lt;b&gt;get_emission_surface_v3 function in diskprojection software (&lt;/b&gt;&lt;b&gt;one dimensionally smoothing,&amp;nbsp;&lt;/b&gt;&lt;b&gt;&lt;br&gt;smooth = 0.5)&lt;br&gt;&lt;/b&gt;&lt;span style=&quot;text-align: justify ; background-color: rgb(255 , 255 , 255)&quot;&gt;&lt;font face=&quot;helvetica neue, helvetica, arial, sans-serif&quot;&gt;Instead of utilizing a strict filter,&amp;nbsp;&lt;/font&gt;&lt;/span&gt;&lt;span style=&quot;font-family: &amp;#34;helvetica neue&amp;#34; , &amp;#34;helvetica&amp;#34; , &amp;#34;arial&amp;#34; , sans-serif ; text-align: justify ; background-color: rgb(255 , 255 , 255)&quot;&gt;we apply a simpler filter that checks whether the near side and far side of the surface have intensities within 10% of one another&lt;/span&gt;&lt;b&gt;&lt;br&gt;&lt;br&gt;&lt;/b&gt;&amp;nbsp;&lt;font color=&quot;#ff3333&quot;&gt;&lt;b&gt;HD163296_CO_v3&lt;br&gt;&lt;/b&gt;&lt;/font&gt;&lt;b style=&quot;color: rgb(255 , 51 , 51)&quot;&gt;HD163296_13CO_v3&lt;br&gt;&lt;/b&gt;&lt;b style=&quot;color: rgb(255 , 51 , 51)&quot;&gt;HD163296_C18O_v3&lt;br&gt;&lt;/b&gt;&lt;b style=&quot;color: rgb(255 , 51 , 51)&quot;&gt;HD163296_HCN_v3&lt;br&gt;&lt;/b&gt;&lt;b style=&quot;color: rgb(255 , 51 , 51)&quot;&gt;HD163296_C2H_v3&lt;/b&gt;&lt;font color=&quot;#ff3333&quot;&gt;&lt;br&gt;(diagnostic plots)&lt;/font&gt;&lt;/font&gt;" style="rounded=1;whiteSpace=wrap;html=1;" vertex="1" parent="1">
          <mxGeometry x="1130" y="1190" width="290" height="250" as="geometry" />
        </mxCell>
        <mxCell id="AEIV_mk72NJeF8CW5xAD-22" value="&lt;font style=&quot;font-size: 14px&quot;&gt;&lt;b&gt;two of real ALMA image cubes&lt;/b&gt;&lt;br&gt;&lt;span style=&quot;font-family: &amp;#34;helvetica neue&amp;#34; , &amp;#34;helvetica&amp;#34; , &amp;#34;arial&amp;#34; , sans-serif ; text-align: left ; background-color: rgb(255 , 255 , 255)&quot;&gt;&lt;br&gt;&lt;/span&gt;&lt;span style=&quot;font-family: &amp;#34;helvetica neue&amp;#34; , &amp;#34;helvetica&amp;#34; , &amp;#34;arial&amp;#34; , sans-serif ; text-align: left ; background-color: rgb(255 , 255 , 255)&quot;&gt;HD_163296_HCN_260GHz_hf1.robust_0.5.clean.JvMcorr.image.pbcor.fits&lt;br&gt;&lt;/span&gt;&lt;span style=&quot;font-family: &amp;#34;helvetica neue&amp;#34; , &amp;#34;helvetica&amp;#34; , &amp;#34;arial&amp;#34; , sans-serif ; text-align: left ; background-color: rgb(255 , 255 , 255)&quot;&gt;H&lt;/span&gt;&lt;span style=&quot;font-family: &amp;#34;helvetica neue&amp;#34; , &amp;#34;helvetica&amp;#34; , &amp;#34;arial&amp;#34; , sans-serif ; text-align: left ; background-color: rgb(255 , 255 , 255)&quot;&gt;D_163296_HCN_260GHz_hf1.0.2arcsec.clean.JvMcorr.image.pbcor.fits&lt;/span&gt;&lt;br&gt;&lt;/font&gt;" style="rounded=1;whiteSpace=wrap;html=1;" vertex="1" parent="1">
          <mxGeometry x="2481" y="1160" width="520" height="130" as="geometry" />
        </mxCell>
        <mxCell id="AEIV_mk72NJeF8CW5xAD-23" value="" style="endArrow=classic;html=1;exitX=1;exitY=0.5;exitDx=0;exitDy=0;entryX=0;entryY=0.5;entryDx=0;entryDy=0;" edge="1" parent="1">
          <mxGeometry width="50" height="50" relative="1" as="geometry">
            <mxPoint x="3000.9999999999995" y="1224.58" as="sourcePoint" />
            <mxPoint x="3090.9999999999995" y="1225.08" as="targetPoint" />
          </mxGeometry>
        </mxCell>
        <mxCell id="AEIV_mk72NJeF8CW5xAD-24" value="&lt;font style=&quot;font-size: 14px&quot;&gt;&lt;b&gt;fit_emission_surface function in diskprojection software package&lt;br&gt;&lt;/b&gt;a fitting algorithm that needs reasonably good inital guesses to perform the fit&lt;b&gt;&lt;br&gt;&lt;/b&gt;&lt;font color=&quot;#ff3333&quot;&gt;&lt;b&gt;&lt;br&gt;&lt;/b&gt;&lt;/font&gt;&lt;font color=&quot;#ff3333&quot;&gt;&lt;b&gt;popt, cov&lt;/b&gt;&lt;br&gt;(two return values)&lt;/font&gt;&lt;/font&gt;" style="rounded=1;whiteSpace=wrap;html=1;" vertex="1" parent="1">
          <mxGeometry x="3090" y="1130" width="290" height="175" as="geometry" />
        </mxCell>
      </root>
    </mxGraphModel>
  </diagram>
</mxfile>
